<svg xmlns="http://www.w3.org/2000/svg" viewBox="0 0 32 32" width="32" height="32">
  <!-- Background circle -->
  <circle cx="16" cy="16" r="15" fill="#fff" stroke="#e8e8e8" stroke-width="1"/>

  <!-- Canadian maple leaf (red) -->
  <path d="
    M16 4
    L17.2 8.5 L21.5 7.5 L19.5 10.5
    L24 10 L21 13
    L27 15 L23 15.5
    L24.5 19.5 L20.5 18
    L19 22 L16 20
    L13 22 L11.5 18
    L7.5 19.5 L9 15.5
    L5 15 L11 13
    L8.5 10 L13 10.5
    L10.5 7.5 L14.8 8.5
    Z
  " fill="#D52B1E"/>

  <!-- Stem -->
  <rect x="15" y="20" width="2" height="5" rx="1" fill="#D52B1E"/>

  <!-- Green progress checkmark badge (bottom right) -->
  <circle cx="25" cy="25" r="6" fill="#22c55e"/>
  <polyline points="21.5,25 24,27.5 28.5,22" stroke="white" stroke-width="2" stroke-linecap="round" stroke-linejoin="round" fill="none"/>
</svg>
